<svg width="17" height="17" viewBox="0 0 17 17" fill="none" xmlns="http://www.w3.org/2000/svg">
<g clip-path="url(#clip0_1403_1424)">
<path d="M15.0757 7.29306V4.18051H13.5239L11.7525 0L2.57599 4.18051H0V17H15.0757V13.8894H17V7.29306H15.0757ZM11.1543 1.52867L12.278 4.18051H5.33352L11.1543 1.52867ZM15.8534 12.7471H10.5505L8.34903 10.5198L10.4893 8.43527H15.8534V12.7471Z" fill="#159C2A"/>
<path d="M11.2315 11.3401C11.6462 11.3401 11.9825 11.005 11.9825 10.5919C11.9825 10.1788 11.6462 9.84375 11.2315 9.84375C10.8168 9.84375 10.4805 10.1788 10.4805 10.5919C10.4805 11.005 10.8168 11.3401 11.2315 11.3401Z" fill="#159C2A"/>
</g>
<defs>
<clipPath id="clip0_1403_1424">
<rect width="17" height="17" fill="white"/>
</clipPath>
</defs>
</svg>
