<svg width="13" height="7" viewBox="0 0 13 7" fill="none" xmlns="http://www.w3.org/2000/svg">
<path fill-rule="evenodd" clip-rule="evenodd" d="M0.485188 0.477439C0.528056 0.437538 0.578981 0.405881 0.635047 0.384281C0.691113 0.362681 0.751218 0.351562 0.811919 0.351562C0.87262 0.351562 0.932725 0.362681 0.988791 0.384281C1.04486 0.405881 1.09578 0.437538 1.13865 0.477439L6.34973 5.31649L11.5608 0.477439C11.6037 0.437602 11.6547 0.406002 11.7107 0.384443C11.7668 0.362883 11.8269 0.351787 11.8875 0.351787C11.9482 0.351787 12.0083 0.362883 12.0644 0.384443C12.1204 0.406002 12.1714 0.437602 12.2143 0.477439C12.2572 0.517276 12.2912 0.564569 12.3144 0.616618C12.3377 0.668667 12.3496 0.724453 12.3496 0.78079C12.3496 0.837128 12.3377 0.892914 12.3144 0.944963C12.2912 0.997012 12.2572 1.0443 12.2143 1.08414L6.67646 6.22569C6.63359 6.26559 6.58267 6.29724 6.5266 6.31884C6.47054 6.34044 6.41043 6.35156 6.34973 6.35156C6.28903 6.35156 6.22892 6.34044 6.17286 6.31884C6.11679 6.29724 6.06587 6.26559 6.023 6.22569L0.485188 1.08414C0.442211 1.04434 0.408114 0.99706 0.38485 0.945006C0.361585 0.892952 0.349609 0.837148 0.349609 0.78079C0.349609 0.724433 0.361585 0.668629 0.38485 0.616575C0.408114 0.564521 0.442211 0.517239 0.485188 0.477439Z" fill="#8B928C" stroke="#8B928C" stroke-width="0.7"/>
</svg>
