<svg width="15" height="15" viewBox="0 0 15 15" fill="none" xmlns="http://www.w3.org/2000/svg">
<path d="M14.0352 1.05462C13.7789 0.527252 13.2676 0.199219 12.7014 0.199219H1.69655C1.1263 0.199219 0.613682 0.530034 0.358695 1.06293C0.103709 1.59583 0.157355 2.22286 0.499103 2.6997L4.99947 8.98309C5.06371 9.07237 5.09881 9.18379 5.09881 9.29522V13.6781C5.09881 13.8684 5.19816 14.0442 5.35843 14.1355C5.43327 14.1785 5.5154 14.1992 5.59753 14.1992C5.69158 14.1992 5.78497 14.1715 5.86642 14.1169L9.56939 11.6358C9.71245 11.5402 9.79921 11.3748 9.79921 11.197V8.73729C9.79921 8.62587 9.83233 8.51997 9.89525 8.43L13.9102 2.68433C14.244 2.20679 14.2923 1.58184 14.036 1.05449L14.0352 1.05462ZM13.104 2.0699L9.0891 7.81558C8.901 8.0848 8.801 8.40385 8.801 8.73743V10.9119L6.09549 12.7243V9.29445C6.09549 8.9588 5.98952 8.62661 5.79745 8.35807L1.29709 2.07467C1.18118 1.91342 1.16396 1.70925 1.25006 1.52932C1.33616 1.34938 1.50307 1.24141 1.69579 1.24141H12.7006C12.892 1.24141 13.0583 1.34799 13.145 1.52655C13.2318 1.70511 13.2159 1.90788 13.1033 2.06983L13.104 2.0699Z" fill="#071C0C" stroke="#071C0C" stroke-width="0.4"/>
</svg>
