<svg width="7" height="10" viewBox="0 0 7 10" fill="none" xmlns="http://www.w3.org/2000/svg">
<path fill-rule="evenodd" clip-rule="evenodd" d="M7 6.55349C7 7.28341 6.81416 7.96633 6.49131 8.54793C6.15664 9.1511 5.67354 9.64542 5.09794 9.97037C4.98651 10.033 4.84595 9.99229 4.78414 9.87987C4.76248 9.84081 4.75343 9.79735 4.75539 9.7559C4.76012 9.34927 4.70697 8.84977 4.50616 8.34592C4.3219 7.88268 4.01007 7.41348 3.50019 7.00727C2.98993 7.4139 2.67849 7.8831 2.49422 8.34592C2.29185 8.8534 2.23949 9.35609 2.24499 9.76396C2.24657 9.89272 2.1442 9.99876 2.01703 9.99996C1.97569 10.0008 1.93631 9.98999 1.90206 9.97046C1.32644 9.64596 0.843329 9.15164 0.508694 8.54844C0.186236 7.96721 0 7.28388 0 6.55399C0 5.75231 0.210638 4.83938 0.579955 4.02499C0.927612 3.25839 1.41859 2.57511 2.01032 2.14658C2.11425 2.07203 2.25836 2.09635 2.33238 2.20159C2.35561 2.23428 2.369 2.27136 2.37372 2.30883C2.42648 2.73698 2.55286 3.04314 2.69225 3.26041C2.51547 1.62234 4.05256 0.0739698 4.0577 0.0688671C4.14747 -0.0228224 4.29394 -0.0228224 4.3841 0.0680698C4.42938 0.113516 4.45221 0.173716 4.45261 0.23351C4.453 1.38162 5.06997 2.32205 5.68652 3.26288C6.34286 4.26349 6.99915 5.26406 6.99915 6.55372L7 6.55349Z" fill="#FF3C00"/>
</svg>
