<svg width="19" height="21" viewBox="0 0 19 21" fill="none" xmlns="http://www.w3.org/2000/svg">
<g clip-path="url(#clip0_1403_1348)">
<path d="M15.9632 12.9961L12.6029 16.7341L10.8806 15.2286L10.1367 16.0775L12.6991 18.317L16.8033 13.7489L15.9632 12.9961Z" fill="#191919" fill-opacity="0.75"/>
<path d="M15.0343 10.1307V1.21943H12.2748V0H2.75954V1.21943H0V18.3548H8.71508C9.69359 19.9424 11.4488 21.0023 13.4457 21.0023C16.508 21.0023 19 18.5119 19 15.4516C19 12.9424 17.3246 10.8178 15.0343 10.133V10.1307ZM3.93281 1.17253H11.1039V2.3943H3.93281V1.17253ZM1.12869 17.2245V2.3474H2.75719V3.56683H12.2748V2.3474H13.9056V9.9196C13.7531 9.90787 13.6006 9.89849 13.4457 9.89849C10.3835 9.89849 7.89144 12.3889 7.89144 15.4492C7.89144 16.0707 7.99469 16.6663 8.18476 17.2245H1.12869ZM13.4457 19.872C11.0053 19.872 9.02013 17.8881 9.02013 15.4492C9.02013 13.0104 11.0053 11.0265 13.4457 11.0265C15.8861 11.0265 17.8713 13.0104 17.8713 15.4492C17.8713 17.8881 15.8861 19.872 13.4457 19.872Z" fill="#191919" fill-opacity="0.75"/>
<path d="M12.413 6.06641H2.84375V7.19672H12.413V6.06641Z" fill="#191919" fill-opacity="0.75"/>
<path d="M9.59712 9.72266H2.84375V10.853H9.59712V9.72266Z" fill="#191919" fill-opacity="0.75"/>
<path d="M7.01591 13.3789H2.84375V14.5092H7.01591V13.3789Z" fill="#191919" fill-opacity="0.75"/>
</g>
<defs>
<clipPath id="clip0_1403_1348">
<rect width="19" height="21" fill="white"/>
</clipPath>
</defs>
</svg>
