<svg width="15" height="18" viewBox="0 0 15 18" fill="none" xmlns="http://www.w3.org/2000/svg">
<g clip-path="url(#clip0_1403_1431)">
<path d="M8.63895 0V1.78888C8.29379 1.76522 7.94384 1.75339 7.59149 1.75339C7.23914 1.75339 6.89399 1.76522 6.54883 1.78888V0H8.64135H8.63895Z" fill="#808080"/>
<path d="M9.51087 15.9336H5.67578V18.0017H9.51087V15.9336Z" fill="#808080"/>
<path d="M15 12.7773H0V15.2075H15V12.7773Z" fill="#808080"/>
<path d="M13.565 8.38007V12.1424H1.62109V8.38007C1.62109 7.79798 1.70019 7.22298 1.8536 6.66691C2.73087 3.53401 5.49214 2.42188 7.59185 2.42188C9.69156 2.42188 12.4552 3.53401 13.3301 6.66691C13.4859 7.22298 13.565 7.79798 13.565 8.38007Z" fill="#808080"/>
</g>
<defs>
<clipPath id="clip0_1403_1431">
<rect width="15" height="18" fill="white"/>
</clipPath>
</defs>
</svg>
