<svg width="17" height="17" viewBox="0 0 17 17" fill="none" xmlns="http://www.w3.org/2000/svg">
<g clip-path="url(#clip0_1403_1372)">
<path d="M8.50185 4.35938C6.21908 4.35938 4.36328 6.21725 4.36328 8.49794C4.36328 10.7786 6.22116 12.6365 8.50185 12.6365C10.7825 12.6365 12.6404 10.7807 12.6404 8.49794C12.6404 6.21517 10.7825 4.35938 8.50185 4.35938ZM8.50185 11.3202C6.94806 11.3202 5.68379 10.0559 5.68379 8.50211C5.68379 6.94832 6.94806 5.68405 8.50185 5.68405C10.0556 5.68405 11.3199 6.94832 11.3199 8.50211C11.3199 10.0559 10.0556 11.3202 8.50185 11.3202Z" fill="#232323" fill-opacity="0.75"/>
<path d="M14.4652 6.25263C14.4173 6.12558 14.3652 5.99853 14.3069 5.87148L15.3087 4.86964L16.1148 4.05942L13.8174 1.79123L13.4488 1.43298L13.3863 1.3705C13.3863 1.3705 13.3801 1.36425 13.3759 1.36217L12.9093 0.908111L11.9533 1.87037L11.1264 2.69726C10.9994 2.63894 10.8723 2.58687 10.7432 2.53896V1.83497H10.7453V0H6.22139L6.25472 2.20154V2.53896C6.11933 2.58895 5.99436 2.64102 5.87148 2.69726L4.09691 0.878951L3.06383 1.9162H3.06175L2.26195 2.72225L1.37258 3.61161C1.35175 3.63244 1.33509 3.65535 1.31843 3.67618L0.910194 4.08858L2.69934 5.86939C2.64102 5.99645 2.58895 6.1235 2.54104 6.25263H0V10.7474H2.53896C2.58895 10.8827 2.64102 11.0098 2.69726 11.1306L1.3705 12.4574C1.3705 12.4574 1.36217 12.4678 1.358 12.4719L0.893531 12.9406L3.19088 15.2088L3.6137 15.6316C3.63453 15.6524 3.65952 15.6712 3.68451 15.6878L4.099 16.0898L5.5778 14.6027L5.87564 14.3048C6.0027 14.3631 6.12975 14.4152 6.25888 14.4631V17H10.789L10.7515 14.6006V14.461C10.8869 14.4111 11.0119 14.359 11.1348 14.3027L11.6222 14.7901L12.9947 16.1939L14.0278 15.1567L14.8297 14.3506H14.8255L16.1815 12.9843L14.3923 11.2035V11.216L14.309 11.1306C14.3673 11.0036 14.4194 10.8765 14.4673 10.7474H16.3439C16.3439 10.7474 16.3502 10.7474 16.3543 10.7474H17.0042V9.77052V6.25263H14.4673H14.4652ZM13.0385 11.7284L14.2361 12.926L12.926 14.2361L11.7284 13.0385C11.5222 12.8323 11.1973 12.7864 10.9432 12.926C10.6161 13.1072 10.2662 13.2509 9.90591 13.3551C9.62473 13.4363 9.42894 13.6966 9.42894 13.9882V15.6816H7.57731V13.9882C7.57731 13.6966 7.38153 13.4363 7.09826 13.3551C6.7421 13.253 6.39427 13.1093 6.06101 12.926C5.80691 12.7844 5.48199 12.8302 5.27579 13.0385L4.07817 14.2361L2.76807 12.926L3.9657 11.7284C4.17189 11.5222 4.21772 11.1993 4.07817 10.9432C3.89696 10.6161 3.75325 10.2662 3.64911 9.90591C3.56788 9.62472 3.30752 9.42894 3.01593 9.42894H1.32051V7.57523H3.01384C3.30544 7.57523 3.56579 7.37944 3.64702 7.09618C3.75116 6.73585 3.89488 6.38802 4.07608 6.05893C4.21772 5.80274 4.17189 5.47991 3.96361 5.27371L2.76599 4.07608L4.07608 2.76599L5.27371 3.96361C5.47991 4.16981 5.80274 4.21772 6.05893 4.07608C6.38802 3.89488 6.73585 3.74908 7.09618 3.64702C7.37736 3.56579 7.57314 3.30544 7.57314 3.01384V1.31843H9.42477V3.01176C9.42477 3.30336 9.62056 3.56371 9.90382 3.64494C10.2579 3.747 10.6078 3.89071 10.9411 4.074C11.1973 4.21563 11.5201 4.16981 11.7263 3.96153L12.9239 2.76391L14.234 4.074L13.0364 5.27162C12.8302 5.47782 12.7844 5.80066 12.9239 6.05685C13.1051 6.38385 13.2488 6.73377 13.353 7.09409C13.4342 7.37528 13.6946 7.57106 13.9862 7.57106H15.6795V9.42477H13.9862C13.6946 9.42477 13.4342 9.62056 13.353 9.90382C13.2509 10.26 13.1072 10.6078 12.9239 10.9411C12.7823 11.1973 12.8281 11.5201 13.0364 11.7263L13.0385 11.7284Z" fill="#232323" fill-opacity="0.75"/>
</g>
<defs>
<clipPath id="clip0_1403_1372">
<rect width="17" height="17" fill="white"/>
</clipPath>
</defs>
</svg>
