<svg width="15" height="16" viewBox="0 0 15 16" fill="none" xmlns="http://www.w3.org/2000/svg">
<path fill-rule="evenodd" clip-rule="evenodd" d="M4.71133 13.2045C5.52221 13.881 6.44766 14.4341 7.46146 14.8807L7.50045 14.8977L7.53945 14.8807C8.55404 14.4348 9.4787 13.8818 10.2896 13.2045C11.0989 12.5288 11.7959 11.7288 12.3563 10.7883C13.0311 9.65511 13.4496 8.41542 13.6852 7.13632C13.9223 5.8509 13.9748 4.52423 13.9175 3.22406L13.9151 3.16114L7.5006 1.09366L1.08606 3.16114L1.08367 3.22172V3.22561C1.02638 4.52503 1.0789 5.85161 1.31603 7.13708C1.55156 8.4163 1.97013 9.65591 2.64493 10.7891C3.20515 11.7289 3.90223 12.5289 4.71161 13.2045L4.71133 13.2045ZM4.19011 7.73262C3.90682 7.39244 3.96093 6.88603 4.30947 6.60953C4.658 6.33303 5.17684 6.38584 5.46013 6.72603L6.54873 8.03398C6.60523 8.10156 6.68242 8.13806 6.77235 8.13806C6.86227 8.13806 6.93946 8.10233 6.99596 8.03398L7.59914 7.30933L8.10125 6.70663C8.10205 6.70507 8.10364 6.7043 8.10444 6.70274L8.10603 6.70119L9.54158 4.97692C9.82486 4.63673 10.3437 4.58468 10.6922 4.86119C11.0408 5.13691 11.0941 5.6441 10.8116 5.98351L9.37049 7.71321L8.86837 8.31671L7.42885 10.0456C7.38588 10.0969 7.33734 10.1419 7.28561 10.18C7.28323 10.1816 7.28084 10.1831 7.27845 10.1854C6.92992 10.4573 6.41505 10.4037 6.13336 10.0651L4.19011 7.73262ZM0.0577744 2.5335C0.0609575 2.48612 0.0776684 2.44418 0.103928 2.41078C0.130189 2.37816 0.167588 2.35175 0.213742 2.337L7.42887 0.0124271C7.45354 0.00466008 7.47741 0 7.50049 0C7.52357 0 7.54744 0.00388343 7.57211 0.0124271L14.7864 2.33779C14.8326 2.35255 14.8708 2.37818 14.8962 2.41158C14.9225 2.44498 14.9392 2.48692 14.9424 2.5343C15.1819 5.95644 14.6726 8.76875 13.4503 10.9941C12.2153 13.2457 10.2435 14.9016 7.57362 15.9852C7.54895 15.9953 7.52428 16 7.50041 16C7.47653 16 7.45187 15.9953 7.4272 15.9852C4.75814 14.9018 2.7864 13.2459 1.54965 10.9941C0.327369 8.76895 -0.181752 5.95644 0.0577744 2.5335ZM7.29429 15.2426C6.24629 14.782 5.28898 14.2088 4.44699 13.5059C3.60349 12.8022 2.87697 11.968 2.29292 10.9871C1.59345 9.81271 1.15976 8.52888 0.916264 7.20603C0.67356 5.88875 0.619454 4.5335 0.677532 3.20767V3.20534L0.686286 3.00806C0.689469 2.9234 0.747559 2.85272 0.825542 2.82787L7.43666 0.696561C7.47963 0.68258 7.5242 0.683357 7.56398 0.696561L14.1751 2.82707C14.2626 2.85503 14.3175 2.93581 14.3152 3.02124L14.3231 3.2092C14.3812 4.53426 14.3271 5.88949 14.0844 7.20677C13.8409 8.52947 13.4072 9.81329 12.7077 10.9878C12.1236 11.9688 11.3971 12.8022 10.5537 13.5066C9.71175 14.2096 8.75366 14.7828 7.70635 15.2433L7.5838 15.2977C7.5289 15.3218 7.46762 15.3202 7.4167 15.2977L7.29429 15.2426Z" fill="#808080"/>
</svg>
