<svg width="184" height="46" viewBox="0 0 184 46" fill="none" xmlns="http://www.w3.org/2000/svg">
<path d="M0 0H9.42858V27.8295H0V0Z" fill="#159C2A"/>
<path d="M0 0H29.3334V9.27651H0V0Z" fill="#159C2A"/>
<path d="M31.4297 0H44.0011V45.3518H31.4297V0Z" fill="#159C2A"/>
<path d="M0 29.8907H29.3334V45.3516H0V29.8907Z" fill="#232323"/>
<path d="M67.248 18.342H62.964V33H59.94V18.342H58.26V15.57H59.94V8.052C59.94 6.456 60.066 4.44 61.62 3.138C62.46 2.424 63.72 2.004 65.106 2.004C66.198 2.004 66.912 2.256 67.248 2.382V5.322C66.618 5.07 65.904 4.944 65.274 4.944C64.602 4.944 63.804 5.112 63.342 5.868C62.964 6.498 62.964 7.464 62.964 8.388V15.57H67.248V18.342Z" fill="#232323"/>
<path d="M71.2899 15.57V25.734C71.2899 26.952 71.2898 28.38 72.1299 29.472C72.5919 30.06 73.5159 30.816 75.1959 30.816C76.8759 30.816 77.7999 30.06 78.2619 29.472C79.1019 28.38 79.1019 26.952 79.1019 25.734V15.57H82.1259V26.07C82.1259 28.212 81.9159 29.808 80.5299 31.32C78.9759 32.958 76.9179 33.504 75.1959 33.504C73.4739 33.504 71.4159 32.958 69.8619 31.32C68.4759 29.808 68.2659 28.212 68.2659 26.07V15.57H71.2899Z" fill="#232323"/>
<path d="M83.6303 33V15.57H86.6543V17.586C87.2003 16.872 88.7543 15.15 91.6523 15.15C93.7103 15.15 95.6003 15.99 96.6503 17.544C97.5323 18.846 97.6583 20.274 97.6583 22.206V33H94.6343V22.29C94.6343 21.24 94.5503 20.022 93.8363 19.098C93.2483 18.342 92.3243 17.838 90.9803 17.838C89.9303 17.838 88.7963 18.132 87.9143 19.182C86.7383 20.568 86.6543 22.626 86.6543 23.886V33H83.6303Z" fill="#232323"/>
<path d="M113.775 18.048V2.382H116.799V33H113.775V30.564C112.767 31.866 110.877 33.504 107.811 33.504C103.401 33.504 99.3268 30.396 99.3268 24.264C99.3268 18.258 103.359 15.15 107.811 15.15C111.171 15.15 112.977 16.998 113.775 18.048ZM108.147 17.838C105.165 17.838 102.435 20.022 102.435 24.264C102.435 28.002 104.535 30.816 108.147 30.816C111.843 30.816 113.943 27.75 113.943 24.306C113.943 19.812 110.835 17.838 108.147 17.838Z" fill="#232323"/>
<path d="M128.826 18.3L126.348 19.602C125.928 18.594 125.046 17.838 123.912 17.838C122.82 17.838 121.812 18.468 121.812 19.812C121.812 21.072 122.652 21.45 124.626 22.29C127.146 23.34 128.322 24.138 128.994 24.978C129.75 25.902 129.918 26.826 129.918 27.792C129.918 31.446 127.272 33.504 123.912 33.504C123.198 33.504 119.292 33.42 117.822 29.052L120.426 27.96C120.762 28.884 121.77 30.816 123.954 30.816C125.928 30.816 126.81 29.346 126.81 28.044C126.81 26.406 125.634 25.86 123.996 25.146C121.896 24.222 120.552 23.55 119.754 22.584C119.082 21.744 118.956 20.904 118.956 20.022C118.956 16.956 121.098 15.15 124.038 15.15C124.962 15.15 127.44 15.318 128.826 18.3Z" fill="#232323"/>
<path d="M130.992 33V2.382H134.016V17.586C134.562 16.872 136.116 15.15 139.014 15.15C141.072 15.15 142.962 15.99 144.012 17.544C144.894 18.846 145.02 20.274 145.02 22.206V33H141.996V22.29C141.996 21.24 141.912 20.022 141.198 19.098C140.61 18.342 139.686 17.838 138.342 17.838C137.292 17.838 136.158 18.132 135.276 19.182C134.1 20.568 134.016 22.626 134.016 23.886V33H130.992Z" fill="#232323"/>
<path d="M155.508 33.504C150.216 33.504 146.268 29.64 146.268 24.348C146.268 19.056 150.174 15.15 155.508 15.15C160.842 15.15 164.748 19.056 164.748 24.348C164.748 29.64 160.8 33.504 155.508 33.504ZM155.508 17.838C152.316 17.838 149.376 20.106 149.376 24.348C149.376 28.632 152.4 30.816 155.508 30.816C158.658 30.816 161.64 28.59 161.64 24.348C161.64 20.064 158.7 17.838 155.508 17.838Z" fill="#232323"/>
<path d="M169.05 30.564V42.828H166.026V15.57H169.05V18.006C171.108 15.444 173.754 15.15 175.014 15.15C180.474 15.15 183.498 19.686 183.498 24.39C183.498 29.178 180.432 33.504 175.14 33.504C172.326 33.504 170.352 32.244 169.05 30.564ZM174.72 30.816C178.248 30.816 180.39 27.876 180.39 24.39C180.39 20.106 177.492 17.838 174.678 17.838C171.864 17.838 168.882 20.148 168.882 24.348C168.882 27.918 171.15 30.816 174.72 30.816Z" fill="#232323"/>
<path d="M61.9049 40.5318L61.6512 40.6995C61.6125 40.6221 61.548 40.5361 61.4835 40.4845C61.4276 40.4415 61.3244 40.3856 61.161 40.3856C60.8772 40.3856 60.6794 40.5619 60.6794 40.8285C60.6794 40.9403 60.7095 41.0048 60.7869 41.0779C60.8729 41.1639 60.9804 41.2112 61.0879 41.2585L61.3631 41.3789C61.5308 41.452 61.6856 41.5294 61.806 41.6498C61.9522 41.796 62.0124 41.9637 62.0124 42.1701C62.0124 42.699 61.6211 43.0516 61.1051 43.0516C60.9159 43.0516 60.6794 43.0129 60.4816 42.8194C60.3397 42.6818 60.2537 42.484 60.215 42.312L60.5246 42.226C60.5461 42.3765 60.6149 42.5055 60.6966 42.5915C60.8213 42.7162 60.9632 42.7506 61.1094 42.7506C61.5007 42.7506 61.6856 42.4711 61.6856 42.183C61.6856 42.054 61.6469 41.9422 61.5437 41.8476C61.462 41.7702 61.3502 41.7186 61.1997 41.6498L60.9417 41.5294C60.8299 41.4778 60.688 41.4176 60.559 41.2929C60.4343 41.1725 60.3612 41.0392 60.3612 40.8242C60.3612 40.3813 60.7009 40.0846 61.1653 40.0846C61.3416 40.0846 61.4835 40.119 61.6254 40.2136C61.7415 40.291 61.8404 40.4071 61.9049 40.5318Z" fill="#232323"/>
<path d="M63.8553 43H63.5285L64.0058 39.9728L65.1066 42.3937L66.2289 39.9685L66.6761 43H66.3493L66.0784 41.0048L65.1023 43.1204L64.1391 41.0048L63.8553 43Z" fill="#232323"/>
<path d="M70.2893 43L69.9539 42.1916H68.7327L68.3887 43H68.0361L69.3562 39.9943L70.6419 43H70.2893ZM68.8574 41.8906H69.8292L69.3476 40.7425L68.8574 41.8906Z" fill="#232323"/>
<path d="M72.0784 40.1319H72.3966V42.699H73.1878V43H72.0784V40.1319Z" fill="#232323"/>
<path d="M74.6515 40.1319H74.9697V42.699H75.7609V43H74.6515V40.1319Z" fill="#232323"/>
<path d="M79.2602 40.1319H79.7762C79.9353 40.1319 80.2234 40.1448 80.4341 40.3125C80.5244 40.3813 80.6921 40.5576 80.6921 40.9059C80.6921 41.0478 80.662 41.2972 80.4083 41.4692C80.8082 41.5681 80.9544 41.9164 80.9544 42.1916C80.9544 42.4668 80.8168 42.6904 80.662 42.8108C80.4341 42.9914 80.1718 43 79.974 43H79.2602V40.1319ZM79.5784 40.4329V41.3918H79.8192C79.9869 41.3918 80.3825 41.3574 80.3825 40.9145C80.3825 40.4415 79.9181 40.4329 79.8278 40.4329H79.5784ZM79.5784 41.6756V42.699H79.9439C80.1288 42.699 80.3094 42.6861 80.447 42.5786C80.5588 42.4969 80.6362 42.355 80.6362 42.183C80.6362 41.9551 80.5029 41.8218 80.3911 41.7616C80.2836 41.7014 80.1331 41.6756 79.9052 41.6756H79.5784Z" fill="#232323"/>
<path d="M82.8906 40.1319V41.8906C82.8906 42.1314 82.8906 42.3937 83.1185 42.5872C83.2346 42.6861 83.4324 42.7506 83.5915 42.7506C83.7506 42.7506 83.9484 42.6861 84.0645 42.5872C84.2924 42.3937 84.2924 42.1314 84.2924 41.8906V40.1319H84.6106V41.9766C84.6106 42.2174 84.5848 42.4496 84.43 42.6646C84.258 42.9011 83.957 43.0516 83.5915 43.0516C83.226 43.0516 82.925 42.9011 82.753 42.6646C82.5982 42.4496 82.5724 42.2174 82.5724 41.9766V40.1319H82.8906Z" fill="#232323"/>
<path d="M87.9194 40.5318L87.6657 40.6995C87.627 40.6221 87.5625 40.5361 87.498 40.4845C87.4421 40.4415 87.3389 40.3856 87.1755 40.3856C86.8917 40.3856 86.6939 40.5619 86.6939 40.8285C86.6939 40.9403 86.724 41.0048 86.8014 41.0779C86.8874 41.1639 86.9949 41.2112 87.1024 41.2585L87.3776 41.3789C87.5453 41.452 87.7001 41.5294 87.8205 41.6498C87.9667 41.796 88.0269 41.9637 88.0269 42.1701C88.0269 42.699 87.6356 43.0516 87.1196 43.0516C86.9304 43.0516 86.6939 43.0129 86.4961 42.8194C86.3542 42.6818 86.2682 42.484 86.2295 42.312L86.5391 42.226C86.5606 42.3765 86.6294 42.5055 86.7111 42.5915C86.8358 42.7162 86.9777 42.7506 87.1239 42.7506C87.5152 42.7506 87.7001 42.4711 87.7001 42.183C87.7001 42.054 87.6614 41.9422 87.5582 41.8476C87.4765 41.7702 87.3647 41.7186 87.2142 41.6498L86.9562 41.5294C86.8444 41.4778 86.7025 41.4176 86.5735 41.2929C86.4488 41.1725 86.3757 41.0392 86.3757 40.8242C86.3757 40.3813 86.7154 40.0846 87.1798 40.0846C87.3561 40.0846 87.498 40.119 87.6399 40.2136C87.756 40.291 87.8549 40.4071 87.9194 40.5318Z" fill="#232323"/>
<path d="M89.6419 40.1319H89.9601V43H89.6419V40.1319Z" fill="#232323"/>
<path d="M92.0503 43H91.7321V40.0115L93.9681 42.355V40.1319H94.2863V43.129L92.0503 40.7855V43Z" fill="#232323"/>
<path d="M97.5441 40.1319V40.4329H96.3745V41.2843H97.5097V41.5853H96.3745V42.699H97.5441V43H96.0563V40.1319H97.5441Z" fill="#232323"/>
<path d="M100.698 40.5318L100.444 40.6995C100.405 40.6221 100.341 40.5361 100.276 40.4845C100.22 40.4415 100.117 40.3856 99.9539 40.3856C99.6701 40.3856 99.4723 40.5619 99.4723 40.8285C99.4723 40.9403 99.5024 41.0048 99.5798 41.0779C99.6658 41.1639 99.7733 41.2112 99.8808 41.2585L100.156 41.3789C100.324 41.452 100.478 41.5294 100.599 41.6498C100.745 41.796 100.805 41.9637 100.805 42.1701C100.805 42.699 100.414 43.0516 99.898 43.0516C99.7088 43.0516 99.4723 43.0129 99.2745 42.8194C99.1326 42.6818 99.0466 42.484 99.0079 42.312L99.3175 42.226C99.339 42.3765 99.4078 42.5055 99.4895 42.5915C99.6142 42.7162 99.7561 42.7506 99.9023 42.7506C100.294 42.7506 100.478 42.4711 100.478 42.183C100.478 42.054 100.44 41.9422 100.337 41.8476C100.255 41.7702 100.143 41.7186 99.9926 41.6498L99.7346 41.5294C99.6228 41.4778 99.4809 41.4176 99.3519 41.2929C99.2272 41.1725 99.1541 41.0392 99.1541 40.8242C99.1541 40.3813 99.4938 40.0846 99.9582 40.0846C100.134 40.0846 100.276 40.119 100.418 40.2136C100.534 40.291 100.633 40.4071 100.698 40.5318Z" fill="#232323"/>
<path d="M103.955 40.5318L103.702 40.6995C103.663 40.6221 103.598 40.5361 103.534 40.4845C103.478 40.4415 103.375 40.3856 103.211 40.3856C102.928 40.3856 102.73 40.5619 102.73 40.8285C102.73 40.9403 102.76 41.0048 102.837 41.0779C102.923 41.1639 103.031 41.2112 103.138 41.2585L103.414 41.3789C103.581 41.452 103.736 41.5294 103.856 41.6498C104.003 41.796 104.063 41.9637 104.063 42.1701C104.063 42.699 103.672 43.0516 103.156 43.0516C102.966 43.0516 102.73 43.0129 102.532 42.8194C102.39 42.6818 102.304 42.484 102.265 42.312L102.575 42.226C102.597 42.3765 102.665 42.5055 102.747 42.5915C102.872 42.7162 103.014 42.7506 103.16 42.7506C103.551 42.7506 103.736 42.4711 103.736 42.183C103.736 42.054 103.697 41.9422 103.594 41.8476C103.512 41.7702 103.401 41.7186 103.25 41.6498L102.992 41.5294C102.88 41.4778 102.738 41.4176 102.609 41.2929C102.485 41.1725 102.412 41.0392 102.412 40.8242C102.412 40.3813 102.751 40.0846 103.216 40.0846C103.392 40.0846 103.534 40.119 103.676 40.2136C103.792 40.291 103.891 40.4071 103.955 40.5318Z" fill="#232323"/>
<path d="M107.713 40.1319H108.032V42.699H108.823V43H107.713V40.1319Z" fill="#232323"/>
<path d="M111.477 43.0516C110.647 43.0516 109.985 42.4195 109.985 41.5681C109.985 40.7124 110.651 40.0846 111.477 40.0846C112.303 40.0846 112.969 40.7124 112.969 41.5681C112.969 42.4195 112.307 43.0516 111.477 43.0516ZM111.477 40.3856C110.832 40.3856 110.312 40.9102 110.312 41.5681C110.312 42.226 110.832 42.7506 111.477 42.7506C112.122 42.7506 112.642 42.226 112.642 41.5681C112.642 40.9102 112.122 40.3856 111.477 40.3856Z" fill="#232323"/>
<path d="M116.331 43L115.996 42.1916H114.775L114.431 43H114.078L115.398 39.9943L116.684 43H116.331ZM114.899 41.8906H115.871L115.39 40.7425L114.899 41.8906Z" fill="#232323"/>
<path d="M118.439 43H118.12V40.0115L120.356 42.355V40.1319H120.675V43.129L118.439 40.7855V43Z" fill="#232323"/>
<path d="M123.98 40.5318L123.726 40.6995C123.687 40.6221 123.623 40.5361 123.558 40.4845C123.502 40.4415 123.399 40.3856 123.236 40.3856C122.952 40.3856 122.754 40.5619 122.754 40.8285C122.754 40.9403 122.784 41.0048 122.862 41.0779C122.948 41.1639 123.055 41.2112 123.163 41.2585L123.438 41.3789C123.606 41.452 123.76 41.5294 123.881 41.6498C124.027 41.796 124.087 41.9637 124.087 42.1701C124.087 42.699 123.696 43.0516 123.18 43.0516C122.991 43.0516 122.754 43.0129 122.556 42.8194C122.414 42.6818 122.328 42.484 122.29 42.312L122.599 42.226C122.621 42.3765 122.69 42.5055 122.771 42.5915C122.896 42.7162 123.038 42.7506 123.184 42.7506C123.575 42.7506 123.76 42.4711 123.76 42.183C123.76 42.054 123.722 41.9422 123.618 41.8476C123.537 41.7702 123.425 41.7186 123.274 41.6498L123.016 41.5294C122.905 41.4778 122.763 41.4176 122.634 41.2929C122.509 41.1725 122.436 41.0392 122.436 40.8242C122.436 40.3813 122.776 40.0846 123.24 40.0846C123.416 40.0846 123.558 40.119 123.7 40.2136C123.816 40.291 123.915 40.4071 123.98 40.5318Z" fill="#232323"/>
<path d="M128.056 40.1319V41.2972H129.527V40.1319H129.845V43H129.527V41.5982H128.056V43H127.738V40.1319H128.056Z" fill="#232323"/>
<path d="M133.535 43L133.199 42.1916H131.978L131.634 43H131.281L132.601 39.9943L133.887 43H133.535ZM132.103 41.8906H133.074L132.593 40.7425L132.103 41.8906Z" fill="#232323"/>
<path d="M136.859 40.5318L136.605 40.6995C136.566 40.6221 136.502 40.5361 136.437 40.4845C136.381 40.4415 136.278 40.3856 136.115 40.3856C135.831 40.3856 135.633 40.5619 135.633 40.8285C135.633 40.9403 135.663 41.0048 135.741 41.0779C135.827 41.1639 135.934 41.2112 136.042 41.2585L136.317 41.3789C136.485 41.452 136.639 41.5294 136.76 41.6498C136.906 41.796 136.966 41.9637 136.966 42.1701C136.966 42.699 136.575 43.0516 136.059 43.0516C135.87 43.0516 135.633 43.0129 135.435 42.8194C135.294 42.6818 135.208 42.484 135.169 42.312L135.478 42.226C135.5 42.3765 135.569 42.5055 135.65 42.5915C135.775 42.7162 135.917 42.7506 136.063 42.7506C136.455 42.7506 136.639 42.4711 136.639 42.183C136.639 42.054 136.601 41.9422 136.498 41.8476C136.416 41.7702 136.304 41.7186 136.154 41.6498L135.896 41.5294C135.784 41.4778 135.642 41.4176 135.513 41.2929C135.388 41.1725 135.315 41.0392 135.315 40.8242C135.315 40.3813 135.655 40.0846 136.119 40.0846C136.295 40.0846 136.437 40.119 136.579 40.2136C136.695 40.291 136.794 40.4071 136.859 40.5318Z" fill="#232323"/>
<path d="M140.116 40.5318L139.863 40.6995C139.824 40.6221 139.759 40.5361 139.695 40.4845C139.639 40.4415 139.536 40.3856 139.372 40.3856C139.089 40.3856 138.891 40.5619 138.891 40.8285C138.891 40.9403 138.921 41.0048 138.998 41.0779C139.084 41.1639 139.192 41.2112 139.299 41.2585L139.575 41.3789C139.742 41.452 139.897 41.5294 140.017 41.6498C140.164 41.796 140.224 41.9637 140.224 42.1701C140.224 42.699 139.833 43.0516 139.317 43.0516C139.127 43.0516 138.891 43.0129 138.693 42.8194C138.551 42.6818 138.465 42.484 138.426 42.312L138.736 42.226C138.758 42.3765 138.826 42.5055 138.908 42.5915C139.033 42.7162 139.175 42.7506 139.321 42.7506C139.712 42.7506 139.897 42.4711 139.897 42.183C139.897 42.054 139.858 41.9422 139.755 41.8476C139.673 41.7702 139.562 41.7186 139.411 41.6498L139.153 41.5294C139.041 41.4778 138.899 41.4176 138.77 41.2929C138.646 41.1725 138.573 41.0392 138.573 40.8242C138.573 40.3813 138.912 40.0846 139.377 40.0846C139.553 40.0846 139.695 40.119 139.837 40.2136C139.953 40.291 140.052 40.4071 140.116 40.5318Z" fill="#232323"/>
<path d="M141.839 40.1319H142.157V42.699H142.948V43H141.839V40.1319Z" fill="#232323"/>
<path d="M145.9 40.1319V40.4329H144.73V41.2843H145.865V41.5853H144.73V42.699H145.9V43H144.412V40.1319H145.9Z" fill="#232323"/>
<path d="M150.861 40.1319V40.4329H149.872V41.28H150.827V41.581H149.872V43H149.554V40.1319H150.861Z" fill="#232323"/>
<path d="M152.45 40.1319H152.911C153.104 40.1319 153.392 40.1448 153.607 40.291C153.775 40.4028 153.921 40.6221 153.921 40.9274C153.921 41.366 153.633 41.6885 153.199 41.7186L154.11 43H153.723L152.85 41.7444H152.769V43H152.45V40.1319ZM152.769 40.4329V41.4606H152.971C153.366 41.4606 153.603 41.2714 153.603 40.936C153.603 40.7769 153.556 40.6178 153.375 40.5146C153.246 40.4415 153.1 40.4329 152.962 40.4329H152.769Z" fill="#232323"/>
<path d="M157.129 40.1319V40.4329H155.959V41.2843H157.094V41.5853H155.959V42.699H157.129V43H155.641V40.1319H157.129Z" fill="#232323"/>
<path d="M160.235 40.1319V40.4329H159.065V41.2843H160.201V41.5853H159.065V42.699H160.235V43H158.747V40.1319H160.235Z" fill="#232323"/>
<path d="M161.308 35.335H160.858V37H160.468V35.335H160.018V34.999H161.308V35.335Z" fill="#232323"/>
<path d="M161.453 37L161.825 34.963H162.095L162.638 36.271L163.205 34.963H163.475L163.811 37H163.415L163.235 35.767L162.686 37.027H162.578L162.053 35.767L161.849 37H161.453Z" fill="#232323"/>
</svg>
